<?xml version="1.0" standalone="no"?><!DOCTYPE svg PUBLIC "-//W3C//DTD SVG 1.1//EN" "http://www.w3.org/Graphics/SVG/1.1/DTD/svg11.dtd"><svg t="1702393987877" class="icon" viewBox="0 0 1024 1024" version="1.1" xmlns="http://www.w3.org/2000/svg" p-id="4391" xmlns:xlink="http://www.w3.org/1999/xlink" width="200" height="200"><path d="M59.733333 336.213333c-13.653333 0-25.6-11.946667-25.6-25.6V110.933333C34.133333 68.266667 68.266667 34.133333 110.933333 34.133333h201.386667c13.653333 0 25.6 11.946667 25.6 25.6S325.973333 85.333333 310.613333 85.333333H110.933333C97.28 85.333333 85.333333 97.28 85.333333 110.933333v201.386667c0 13.653333-10.24 23.893333-25.6 23.893333zM310.613333 989.866667H110.933333C68.266667 989.866667 34.133333 955.733333 34.133333 913.066667V713.386667c0-13.653333 11.946667-25.6 25.6-25.6s25.6 10.24 25.6 25.6v201.386666c0 11.946667 11.946667 23.893333 25.6 23.893334h201.386667c13.653333 0 25.6 11.946667 25.6 25.6s-11.946667 25.6-27.306667 25.6zM913.066667 989.866667H713.386667c-13.653333 0-25.6-11.946667-25.6-25.6S699.733333 938.666667 713.386667 938.666667h201.386666c13.653333 0 23.893333-10.24 23.893334-23.893334V713.386667c0-13.653333 11.946667-25.6 25.6-25.6s25.6 11.946667 25.6 25.6v201.386666c0 40.96-34.133333 75.093333-76.8 75.093334zM964.266667 336.213333c-13.653333 0-25.6-11.946667-25.6-25.6V110.933333c0-13.653333-11.946667-25.6-25.6-25.6H713.386667c-13.653333 0-25.6-11.946667-25.6-25.6S698.026667 34.133333 713.386667 34.133333h201.386666C955.733333 34.133333 989.866667 68.266667 989.866667 110.933333v201.386667c0 13.653333-11.946667 23.893333-25.6 23.893333zM512 713.386667c-110.933333 0-201.386667-90.453333-201.386667-201.386667S401.066667 310.613333 512 310.613333 713.386667 401.066667 713.386667 512 622.933333 713.386667 512 713.386667z m0-351.573334c-81.92 0-150.186667 66.56-150.186667 150.186667s66.56 150.186667 150.186667 150.186667 150.186667-66.56 150.186667-150.186667-68.266667-150.186667-150.186667-150.186667z" fill="#f4ea2a" p-id="4392"></path><path d="M512 361.813333c-13.653333 0-25.6-11.946667-25.6-25.6v-100.693333c0-13.653333 11.946667-25.6 25.6-25.6s25.6 11.946667 25.6 25.6v100.693333c0 13.653333-11.946667 25.6-25.6 25.6zM512 814.08c-13.653333 0-25.6-11.946667-25.6-25.6v-100.693333c0-13.653333 11.946667-25.6 25.6-25.6s25.6 11.946667 25.6 25.6v100.693333c0 13.653333-11.946667 25.6-25.6 25.6zM788.48 537.6h-100.693333c-13.653333 0-25.6-11.946667-25.6-25.6s11.946667-25.6 25.6-25.6h100.693333c13.653333 0 25.6 11.946667 25.6 25.6s-11.946667 25.6-25.6 25.6zM336.213333 537.6h-100.693333c-13.653333 0-25.6-11.946667-25.6-25.6s11.946667-25.6 25.6-25.6h100.693333c13.653333 0 25.6 11.946667 25.6 25.6s-11.946667 25.6-25.6 25.6zM512 561.493333c27.306667 0 49.493333-22.186667 49.493333-49.493333s-22.186667-49.493333-49.493333-49.493333-49.493333 22.186667-49.493333 49.493333 22.186667 49.493333 49.493333 49.493333z" fill="#f4ea2a" p-id="4393"></path></svg>