<?xml version="1.0" encoding="utf-8"?>
<!-- Generator: Adobe Illustrator 26.0.3, SVG Export Plug-In . SVG Version: 6.00 Build 0)  -->
<svg version="1.1" id="siyiemiter" xmlns="http://www.w3.org/2000/svg" xmlns:xlink="http://www.w3.org/1999/xlink" x="0px" y="0px"
	 viewBox="0 0 8.94 8.94" style="enable-background:new 0 0 8.94 8.94;" xml:space="preserve">
<style type="text/css">
	.st0{fill:#A85656;}
	.st1{fill:none;stroke:#FF6161;stroke-width:2;stroke-miterlimit:10;}
	.st2{fill:none;stroke:#FFD7D7;stroke-miterlimit:10;}
	.st3{fill:#FFFFFF;}
	.st4{fill:none;stroke:#FFFFFF;stroke-width:2.7473;stroke-linecap:round;stroke-miterlimit:10;}
	.st5{fill:none;stroke:#FFFFFF;stroke-width:2.5;stroke-miterlimit:10;}
	.st6{fill:none;stroke:#FFFFFF;stroke-width:0.6446;stroke-miterlimit:10;}
	.st7{fill:none;stroke:#FFFFFF;stroke-width:0.5785;stroke-linecap:round;stroke-miterlimit:10;}
</style>
<g>
	<circle class="st3" cx="4.49" cy="3.15" r="0.39"/>
	<path class="st3" d="M4.3,4.34l-0.12,3.1C4.18,7.6,4.19,7.77,4.21,7.77l0.5,0c0.02,0,0.04-0.16,0.03-0.32l-0.12-3.1
		c0-0.11-0.02-0.18-0.03-0.18l-0.27,0C4.31,4.17,4.3,4.24,4.3,4.34z"/>
	<path class="st3" d="M5.72,2.3L5.31,2.58c0.11,0.17,0.18,0.36,0.18,0.56c0,0.2-0.06,0.4-0.18,0.56l0.41,0.28
		c0.17-0.24,0.26-0.53,0.26-0.85C5.98,2.83,5.89,2.54,5.72,2.3L5.72,2.3z"/>
	<path class="st3" d="M3.27,2.3C3.1,2.54,3.01,2.83,3.01,3.15c0,0.31,0.1,0.61,0.26,0.85l0.41-0.28C3.56,3.55,3.5,3.35,3.5,3.15
		c0-0.2,0.06-0.4,0.18-0.56L3.27,2.3z"/>
	<path class="st3" d="M6.44,1.8L6.03,2.08C6.1,2.19,6.16,2.3,6.21,2.41c0.1,0.23,0.15,0.48,0.15,0.73c0,0.25-0.05,0.5-0.15,0.73
		C6.16,4,6.1,4.11,6.03,4.21l0.41,0.28C6.7,4.11,6.85,3.64,6.85,3.15C6.85,2.65,6.7,2.19,6.44,1.8L6.44,1.8z"/>
	<path class="st3" d="M2.93,2.06L2.52,1.78C2.25,2.17,2.09,2.64,2.09,3.15c0,0.51,0.16,0.98,0.43,1.37l0.41-0.28
		C2.85,4.12,2.79,4,2.74,3.88C2.64,3.65,2.59,3.4,2.59,3.15c0-0.25,0.05-0.5,0.15-0.73C2.79,2.29,2.85,2.17,2.93,2.06L2.93,2.06z"/>
	<path class="st3" d="M7.36,1.17L6.95,1.45c0.11,0.16,0.21,0.34,0.28,0.52c0.15,0.37,0.23,0.76,0.23,1.16c0,0.4-0.08,0.79-0.23,1.16
		c-0.08,0.2-0.19,0.38-0.31,0.55l0.41,0.28c0.4-0.56,0.63-1.25,0.63-1.99C7.97,2.4,7.74,1.73,7.36,1.17L7.36,1.17z"/>
	<path class="st3" d="M1.52,3.13c0-0.4,0.08-0.79,0.23-1.16c0.08-0.18,0.17-0.36,0.28-0.52L1.63,1.17C1.25,1.73,1.02,2.4,1.02,3.13
		c0,0.74,0.23,1.43,0.63,1.99l0.41-0.28C1.94,4.67,1.84,4.48,1.75,4.29C1.6,3.92,1.52,3.53,1.52,3.13L1.52,3.13z"/>
</g>
</svg>
