<?xml version="1.0" encoding="UTF-8"?>
<svg id="_图层_2" data-name="图层 2" xmlns="http://www.w3.org/2000/svg" viewBox="0 0 31.68 30.09">
  <defs>
    <style>
      .cls-1 {
        fill: #fff;
      }
    </style>
  </defs>
  <g id="_图层_1-2" data-name="图层 1">
    <path class="cls-1" d="M14.95,14.48l-.53,14.14c-.03,.73,.04,1.47,.13,1.47h2.28c.09,0,.16-.74,.13-1.47l-.53-14.14c-.02-.48-.07-.81-.13-.81h-1.23c-.06,0-.12,.33-.13,.81Z"/>
    <path class="cls-1" d="M21.42,5.15l-1.86,1.29c.52,.75,.8,1.64,.8,2.58s-.28,1.82-.8,2.58l1.86,1.29c.76-1.1,1.21-2.43,1.21-3.86s-.45-2.77-1.21-3.86h0Z"/>
    <path class="cls-1" d="M10.26,5.15c-.76,1.1-1.21,2.43-1.21,3.86s.45,2.77,1.21,3.86l1.86-1.29c-.52-.75-.8-1.64-.8-2.58s.28-1.82,.8-2.58l-1.86-1.29Z"/>
    <path class="cls-1" d="M24.69,2.89l-1.86,1.29c.32,.47,.59,.97,.82,1.5,.45,1.06,.68,2.18,.68,3.34s-.23,2.28-.68,3.34c-.22,.53-.49,1.03-.82,1.5l1.86,1.29c1.2-1.75,1.9-3.86,1.9-6.13s-.7-4.38-1.9-6.13h0Z"/>
    <path class="cls-1" d="M8.7,4.07l-1.86-1.29c-1.24,1.76-1.97,3.91-1.97,6.23s.72,4.47,1.96,6.23l1.86-1.29c-.35-.5-.65-1.03-.89-1.6-.45-1.06-.67-2.19-.67-3.34s.23-2.29,.68-3.34c.24-.57,.53-1.1,.89-1.59h0Z"/>
    <path class="cls-1" d="M28.91,0l-1.86,1.29c.51,.74,.94,1.54,1.3,2.37,.71,1.67,1.07,3.45,1.07,5.29s-.36,3.61-1.07,5.29c-.38,.89-.85,1.73-1.4,2.52l1.86,1.28c1.81-2.57,2.86-5.71,2.86-9.09s-1.02-6.4-2.77-8.95h0Z"/>
    <path class="cls-1" d="M2.26,8.95c0-1.83,.36-3.61,1.07-5.29,.35-.84,.79-1.63,1.3-2.37L2.76,0C1.02,2.55,0,5.63,0,8.95s1.06,6.52,2.86,9.09l1.86-1.29c-.55-.78-1.02-1.63-1.4-2.52-.71-1.67-1.06-3.45-1.06-5.28h0Z"/>
  </g>
</svg>