<?xml version="1.0" standalone="no"?><!DOCTYPE svg PUBLIC "-//W3C//DTD SVG 1.1//EN" "http://www.w3.org/Graphics/SVG/1.1/DTD/svg11.dtd"><svg t="1701878333207" class="icon" viewBox="0 0 1024 1024" version="1.1" xmlns="http://www.w3.org/2000/svg" p-id="4244" xmlns:xlink="http://www.w3.org/1999/xlink" width="200" height="200"><path d="M849 509.3L456.27 904.74a32 32 0 0 0 45.41 45.1L917 531.7a32 32 0 0 0-0.16-45.25L501.53 74a32 32 0 1 0-45.1 45.41z" fill="#ffffff" p-id="4245"></path><path d="M499.78 509.3L107.05 904.74a32 32 0 0 0 45.41 45.1L567.74 531.7a32 32 0 0 0-0.16-45.25L152.31 74a32 32 0 0 0-45.1 45.41z" fill="#ffffff" p-id="4246"></path></svg>