<?xml version="1.0" standalone="no"?><!DOCTYPE svg PUBLIC "-//W3C//DTD SVG 1.1//EN" "http://www.w3.org/Graphics/SVG/1.1/DTD/svg11.dtd"><svg t="1699750166283" class="icon" viewBox="0 0 1024 1024" version="1.1" xmlns="http://www.w3.org/2000/svg" p-id="4893" xmlns:xlink="http://www.w3.org/1999/xlink" width="200" height="200"><path d="M512 1024C229.216 1024 0 794.784 0 512S229.216 0 512 0s512 229.216 512 512-229.216 512-512 512z m0-51.2c254.496 0 460.8-206.304 460.8-460.8S766.496 51.2 512 51.2 51.2 257.504 51.2 512 257.504 972.8 512 972.8zM77.44 358.4c6.208-17.6 13.44-34.656 21.664-51.2h825.792c8.224 16.544 15.456 33.6 21.696 51.2H921.6v230.4h-51.2v-230.4h-76.8V512h-51.2v-153.6h-76.8v230.4h-51.2v-230.4h-76.8V512h-51.2v-153.6h-76.8v230.4h-51.2v-230.4H281.6V512H230.4v-153.6H153.6v230.4H102.4v-230.4h-24.96z" fill="#1afa29" p-id="4894"></path></svg>