<?xml version="1.0" standalone="no"?>
<!DOCTYPE svg PUBLIC "-//W3C//DTD SVG 1.1//EN" "http://www.w3.org/Graphics/SVG/1.1/DTD/svg11.dtd">
<svg t="1701881617772" class="icon" viewBox="0 0 1024 1024" version="1.1"
    xmlns="http://www.w3.org/2000/svg" p-id="5466" xmlns:xlink="http://www.w3.org/1999/xlink"
    width="200" height="200">
    <path
        d="M123.92 555.9a32 32 0 0 1-14.82-60.38l719.19-374.9a32 32 0 0 1 29.59 56.76l-719.2 374.89a31.87 31.87 0 0 1-14.76 3.63z"
        fill="#ff0000" p-id="5467"></path>
    <path
        d="M608.6 957.7a32 32 0 0 1-30.6-41.27l234.64-776.34a32 32 0 0 1 61.26 18.52L639.22 935a32 32 0 0 1-30.62 22.7zM505.92 580.44c-0.68 0-1.36 0-2.05-0.07l-381.46-24.12a32 32 0 1 1 4-63.88l381.5 24.13a32 32 0 0 1-2 63.94z"
        fill="#ff0000" p-id="5468"></path>
    <path
        d="M608.14 957.32a32 32 0 0 1-30.87-23.63L475 556.82a32 32 0 1 1 61.77-16.76L639 916.93a32 32 0 0 1-22.51 39.26 31.61 31.61 0 0 1-8.35 1.13z"
        fill="#ff0000" p-id="5469"></path>
</svg>