<?xml version="1.0" encoding="UTF-8"?>
<svg id="_图层_2" data-name="图层 2" xmlns="http://www.w3.org/2000/svg" viewBox="0 0 28.21 30.27">
  <defs>
    <style>
      .cls-1 {
        fill: #fff;
      }
    </style>
  </defs>
  <g id="_图层_1-2" data-name="图层 1">
    <g>
      <path class="cls-1" d="M13.81,11.27s0,0,0,0h.74c1.63-1.8,3.64-3.08,5.57-3.99,.32-.15,.64-.29,.96-.42l-1.51-1.86L16.03,.64c-.69-.85-2.4-.85-3.09,0l-3.53,4.36-1.66,2.05c2.07,.92,4.3,2.26,6.06,4.22Z"/>
      <g>
        <path class="cls-1" d="M11.92,28.94c-2.91-7.91-1.23-13.09,1.82-16.46-3.14-3.47-7.73-5.02-10.29-5.65-1.08-.27-2.18,.36-2.46,1.42C-.39,13.29-2.73,27.43,13.28,30.23c.16,.03,.31,.03,.46,.02-.81-.04-1.54-.55-1.82-1.31Z"/>
        <path class="cls-1" d="M27.23,8.24c-.29-1.05-1.38-1.68-2.46-1.41-1.23,.3-2.94,.82-4.72,1.66-5.53,2.61-11.85,8.33-7.39,20.45,.33,.91,1.31,1.46,2.28,1.29,16.01-2.8,13.67-16.94,12.29-21.99Z"/>
      </g>
    </g>
  </g>
</svg>