<?xml version="1.0" encoding="utf-8"?>
<!-- Generator: Adobe Illustrator 26.0.3, SVG Export Plug-In . SVG Version: 6.00 Build 0)  -->
<svg version="1.1" id="siyineer" xmlns="http://www.w3.org/2000/svg" xmlns:xlink="http://www.w3.org/1999/xlink" x="0px" y="0px"
	 viewBox="0 0 8.94 8.94" style="enable-background:new 0 0 8.94 8.94;" xml:space="preserve">
<style type="text/css">
	.st0{fill:#A85656;}
	.st1{fill:none;stroke:#FF6161;stroke-width:2;stroke-miterlimit:10;}
	.st2{fill:none;stroke:#FFD7D7;stroke-miterlimit:10;}
	.st3{fill:#FFFFFF;}
	.st4{fill:none;stroke:#FFFFFF;stroke-width:2.7473;stroke-linecap:round;stroke-miterlimit:10;}
	.st5{fill:none;stroke:#FFFFFF;stroke-width:2.5;stroke-miterlimit:10;}
	.st6{fill:none;stroke:#FFFFFF;stroke-width:0.6446;stroke-miterlimit:10;}
	.st7{fill:none;stroke:#FFFFFF;stroke-width:0.5785;stroke-linecap:round;stroke-miterlimit:10;}
</style>
<g>
	<path class="st3" d="M4.41,3.42C4.41,3.43,4.41,3.43,4.41,3.42l0.19,0h0.02C5.07,2.92,5.64,2.56,6.18,2.3
		c0.09-0.04,0.18-0.08,0.27-0.12L6.03,1.66l-1-1.23c-0.19-0.24-0.68-0.24-0.87,0l-1,1.23L2.7,2.24C3.28,2.49,3.91,2.87,4.41,3.42z"
		/>
	<g>
		<path class="st3" d="M3.88,8.4C3.06,6.17,3.53,4.71,4.39,3.76C3.5,2.79,2.21,2.35,1.49,2.17C1.18,2.1,0.88,2.27,0.8,2.57
			c-0.39,1.42-1.05,5.41,3.46,6.2C4.3,8.77,4.35,8.77,4.39,8.77C4.16,8.76,3.95,8.62,3.88,8.4z"/>
		<path class="st3" d="M8.19,2.57C8.11,2.28,7.8,2.1,7.49,2.17C7.15,2.26,6.67,2.4,6.16,2.64C4.61,3.38,2.83,4.99,4.08,8.4
			c0.09,0.26,0.37,0.41,0.64,0.36C9.24,7.98,8.58,3.99,8.19,2.57z"/>
	</g>
</g>
</svg>
