<?xml version="1.0" encoding="UTF-8"?>
<svg id="_图层_2" data-name="图层 2" xmlns="http://www.w3.org/2000/svg" viewBox="0 0 41.16 32.14">
  <defs>
    <style>
      .cls-1 {
        fill: #fff;
      }

      .cls-2 {
        fill: none;
        stroke: #fff;
        stroke-linecap: round;
        stroke-miterlimit: 10;
        stroke-width: 2.75px;
      }
    </style>
  </defs>
  <g id="_图层_1-2" data-name="图层 1">
    <line class="cls-2" x1="5.76" y1="1.37" x2="13.43" y2="1.37"/>
    <g>
      <path class="cls-1" d="M38.03,4.47H3.13c-1.73,0-3.13,1.4-3.13,3.13V29.01c0,1.73,1.4,3.13,3.13,3.13H38.03c1.73,0,3.13-1.4,3.13-3.13V7.6c0-1.73-1.4-3.13-3.13-3.13ZM10.19,26.25c0,.76-.62,1.37-1.37,1.37s-1.37-.62-1.37-1.37V10.6c0-.76,.62-1.37,1.37-1.37s1.37,.62,1.37,1.37v15.65Zm14.75,1.69c-5.29,0-9.6-4.31-9.6-9.6s4.31-9.6,9.6-9.6,9.6,4.31,9.6,9.6-4.31,9.6-9.6,9.6Z"/>
      <path class="cls-1" d="M24.93,10.81c-4.15,0-7.53,3.38-7.53,7.53s3.38,7.53,7.53,7.53,7.53-3.38,7.53-7.53-3.38-7.53-7.53-7.53Zm3.59,7.53c-1.23,0-2.23-1-2.23-2.23s1-2.23,2.23-2.23,2.23,1,2.23,2.23-1,2.23-2.23,2.23Z"/>
    </g>
  </g>
</svg>