<?xml version="1.0" encoding="utf-8"?>
<!-- Generator: Adobe Illustrator 26.0.3, SVG Export Plug-In . SVG Version: 6.00 Build 0)  -->
<svg version="1.1" id="siyiphoto" xmlns="http://www.w3.org/2000/svg" xmlns:xlink="http://www.w3.org/1999/xlink" x="0px" y="0px"
	 viewBox="0 0 8.94 8.94" style="enable-background:new 0 0 8.94 8.94;" xml:space="preserve">
<style type="text/css">
	.st0{fill:#A85656;}
	.st1{fill:none;stroke:#FF6161;stroke-width:2;stroke-miterlimit:10;}
	.st2{fill:none;stroke:#FFD7D7;stroke-miterlimit:10;}
	.st3{fill:#FFFFFF;}
	.st4{fill:none;stroke:#FFFFFF;stroke-width:2.7473;stroke-linecap:round;stroke-miterlimit:10;}
	.st5{fill:none;stroke:#FFFFFF;stroke-width:2.5;stroke-miterlimit:10;}
	.st6{fill:none;stroke:#FFFFFF;stroke-width:0.6446;stroke-miterlimit:10;}
	.st7{fill:none;stroke:#FFFFFF;stroke-width:0.5785;stroke-linecap:round;stroke-miterlimit:10;}
</style>
<g>
	<line class="st7" x1="1.37" y1="1.32" x2="2.99" y2="1.32"/>
	<g>
		<path class="st3" d="M8.17,1.97H0.82c-0.36,0-0.66,0.3-0.66,0.66v4.51c0,0.36,0.3,0.66,0.66,0.66h7.35c0.36,0,0.66-0.3,0.66-0.66
			V2.63C8.83,2.27,8.53,1.97,8.17,1.97z M2.3,6.56c0,0.16-0.13,0.29-0.29,0.29S1.72,6.72,1.72,6.56V3.27c0-0.16,0.13-0.29,0.29-0.29
			S2.3,3.11,2.3,3.27V6.56z M5.41,6.92c-1.11,0-2.02-0.91-2.02-2.02c0-1.11,0.91-2.02,2.02-2.02c1.11,0,2.02,0.91,2.02,2.02
			C7.43,6.01,6.52,6.92,5.41,6.92z"/>
		<path class="st3" d="M5.41,3.31c-0.87,0-1.59,0.71-1.59,1.59s0.71,1.59,1.59,1.59s1.59-0.71,1.59-1.59S6.28,3.31,5.41,3.31z
			 M6.16,4.89c-0.26,0-0.47-0.21-0.47-0.47c0-0.26,0.21-0.47,0.47-0.47c0.26,0,0.47,0.21,0.47,0.47C6.63,4.68,6.42,4.89,6.16,4.89z"
			/>
	</g>
</g>
</svg>
