<?xml version="1.0" encoding="utf-8"?>
<!-- Generator: Adobe Illustrator 26.0.3, SVG Export Plug-In . SVG Version: 6.00 Build 0)  -->
<svg version="1.1" id="siyireset" xmlns="http://www.w3.org/2000/svg" xmlns:xlink="http://www.w3.org/1999/xlink" x="0px" y="0px"
	 viewBox="0 0 8.94 8.94" style="enable-background:new 0 0 8.94 8.94;" xml:space="preserve">
<style type="text/css">
	.st0{fill:#A85656;}
	.st1{fill:none;stroke:#FF6161;stroke-width:2;stroke-miterlimit:10;}
	.st2{fill:none;stroke:#FFD7D7;stroke-miterlimit:10;}
	.st3{fill:#FFFFFF;}
	.st4{fill:none;stroke:#FFFFFF;stroke-width:2.7473;stroke-linecap:round;stroke-miterlimit:10;}
	.st5{fill:none;stroke:#FFFFFF;stroke-width:2.5;stroke-miterlimit:10;}
	.st6{fill:none;stroke:#FFFFFF;stroke-width:0.6446;stroke-miterlimit:10;}
	.st7{fill:none;stroke:#FFFFFF;stroke-width:0.5785;stroke-linecap:round;stroke-miterlimit:10;}
</style>
<rect x="-30.75" y="-98.56" class="st2" width="340.16" height="189.92"/>
<g>
	<g>
		<path class="st3" d="M3.94,8.08C0.39,7.61-0.46,2.6,2.89,1.2C2.25,1.56,1.73,2.1,1.44,2.75C0.5,4.65,1.92,7.13,4.04,7.17
			C4.04,7.17,3.94,8.08,3.94,8.08L3.94,8.08z"/>
	</g>
	<path class="st3" d="M5.19,7.87C5.23,7.85,5.24,7.78,5.2,7.75L4.44,7.12L3.7,6.5C3.66,6.47,3.59,6.5,3.58,6.55L3.48,7.64L3.37,8.73
		c-0.01,0.06,0.06,0.1,0.11,0.07l0.84-0.46L5.19,7.87z"/>
	<g>
		<path class="st3" d="M5.04,0.86c3.55,0.47,4.4,5.48,1.05,6.88c0.64-0.35,1.16-0.9,1.45-1.55c0.95-1.9-0.47-4.38-2.59-4.42
			C4.95,1.76,5.04,0.86,5.04,0.86L5.04,0.86z"/>
	</g>
	<path class="st3" d="M3.8,1.06C3.75,1.09,3.74,1.15,3.78,1.19l0.76,0.63l0.74,0.61C5.33,2.47,5.4,2.44,5.4,2.38l0.11-1.09L5.61,0.2
		C5.62,0.14,5.55,0.1,5.5,0.13L4.66,0.59L3.8,1.06z"/>
</g>
</svg>
