<?xml version="1.0" encoding="UTF-8"?>
<svg id="_图层_2" data-name="图层 2" xmlns="http://www.w3.org/2000/svg" viewBox="0 0 32.37 37.65">
  <defs>
    <style>
      .cls-1 {
        fill: #fff;
      }
    </style>
  </defs>
  <g id="_图层_1-2" data-name="图层 1">
    <g>
      <path class="cls-1" d="M13.79,34.47C2.88,32.97-3.58,20.44,2.11,10.94c1.62-2.86,4.24-5.03,7.15-6.26-2.77,1.53-5.04,3.9-6.28,6.72-4.01,8.38,1.89,18.81,11.22,19.15,0,0-.42,3.92-.42,3.92h0Z"/>
      <path class="cls-1" d="M19.2,33.56c.2-.11,.23-.38,.05-.53l-3.29-2.74-3.19-2.65c-.2-.17-.5-.04-.53,.22l-.46,4.72-.46,4.72c-.02,.26,.25,.44,.48,.31l3.63-1.99,3.75-2.06Z"/>
      <path class="cls-1" d="M18.57,3.19c10.91,1.49,17.38,14.03,11.68,23.53-1.62,2.86-4.24,5.03-7.15,6.26,2.77-1.53,5.04-3.9,6.28-6.72,4.01-8.38-1.89-18.81-11.22-19.15,0,0,.42-3.92,.42-3.92h0Z"/>
      <path class="cls-1" d="M13.17,4.09c-.2,.11-.23,.38-.05,.53l3.29,2.74,3.19,2.65c.2,.17,.5,.04,.53-.22l.46-4.72,.46-4.72c.02-.26-.25-.44-.48-.31l-3.63,1.99-3.75,2.06Z"/>
    </g>
  </g>
</svg>