<?xml version="1.0" standalone="no"?><!DOCTYPE svg PUBLIC "-//W3C//DTD SVG 1.1//EN" "http://www.w3.org/Graphics/SVG/1.1/DTD/svg11.dtd"><svg t="1666018410006" class="icon" viewBox="0 0 1024 1024" version="1.1" xmlns="http://www.w3.org/2000/svg" p-id="8429" xmlns:xlink="http://www.w3.org/1999/xlink" width="200" height="200"><path d="M535.06048 895.0784m-40.96 0l0 0q-40.96 0-40.96-40.96l0-573.44q0-40.96 40.96-40.96l0 0q40.96 0 40.96 40.96l0 573.44q0 40.96-40.96 40.96Z" fill="#000000" p-id="8430"></path><path d="M493.03552 242.21696L289.792 445.44a40.96 40.96 0 1 1-57.93792-57.93792L463.58528 155.81184a40.96 40.96 0 0 1 58.44992-0.45056l231.69024 231.69024a40.96 40.96 0 1 1-57.91744 57.93792l-202.77248-202.77248z" fill="#000000" p-id="8431"></path></svg>