<?xml version="1.0" encoding="UTF-8"?>
<svg id="_图层_2" data-name="图层 2" xmlns="http://www.w3.org/2000/svg" viewBox="0 0 47.45 32.18">
  <defs>
    <style>
      .cls-1 {
        fill: #fff;
      }
    </style>
  </defs>
  <g id="_图层_1-2" data-name="图层 1">
    <path class="cls-1" d="M35.79,26.8l10.56,3.18c.55,.16,1.1-.24,1.1-.81V15.4c0-.57-.55-.98-1.1-.81l-10.56,3.18c-.36,.11-.61,.44-.61,.81v7.41c0,.38,.25,.71,.61,.81Z"/>
    <path class="cls-1" d="M29.9,12.72H3.77c-2.08,0-3.77,1.69-3.77,3.77v11.92c0,2.08,1.69,3.77,3.77,3.77H29.9c2.08,0,3.77-1.69,3.77-3.77v-11.92c0-2.08-1.69-3.77-3.77-3.77Zm-6.95,10.05l-4.3,2.92-4.16,2.83c-.26,.18-.61,0-.61-.32v-11.51c0-.31,.35-.5,.61-.32l4.16,2.83,4.3,2.92c.23,.16,.23,.49,0,.65Z"/>
    <circle class="cls-1" cx="9.88" cy="7.72" r="5"/>
    <circle class="cls-1" cx="23.16" cy="6.36" r="6.36"/>
  </g>
</svg>