<?xml version="1.0" encoding="utf-8"?>
<!-- Generator: Adobe Illustrator 26.0.3, SVG Export Plug-In . SVG Version: 6.00 Build 0)  -->
<svg version="1.1" id="siyivideo" xmlns="http://www.w3.org/2000/svg" xmlns:xlink="http://www.w3.org/1999/xlink" x="0px" y="0px"
	 viewBox="0 0 8.94 8.94" style="enable-background:new 0 0 8.94 8.94;" xml:space="preserve">
<style type="text/css">
	.st0{fill:#A85656;}
	.st1{fill:none;stroke:#FF6161;stroke-width:2;stroke-miterlimit:10;}
	.st2{fill:none;stroke:#FFD7D7;stroke-miterlimit:10;}
	.st3{fill:#FFFFFF;}
	.st4{fill:none;stroke:#FFFFFF;stroke-width:2.7473;stroke-linecap:round;stroke-miterlimit:10;}
	.st5{fill:none;stroke:#FFFFFF;stroke-width:2.5;stroke-miterlimit:10;}
	.st6{fill:none;stroke:#FFFFFF;stroke-width:0.6446;stroke-miterlimit:10;}
	.st7{fill:none;stroke:#FFFFFF;stroke-width:0.5785;stroke-linecap:round;stroke-miterlimit:10;}
</style>
<g>
	<path class="st3" d="M6.68,6.46L8.6,7.04c0.1,0.03,0.2-0.04,0.2-0.15l0-2.5c0-0.1-0.1-0.18-0.2-0.15L6.68,4.82
		C6.62,4.84,6.57,4.9,6.57,4.97l0,1.35C6.57,6.38,6.62,6.44,6.68,6.46z"/>
	<path class="st3" d="M5.61,3.9H0.87c-0.38,0-0.68,0.31-0.68,0.68v2.16c0,0.38,0.31,0.68,0.68,0.68h4.74c0.38,0,0.68-0.31,0.68-0.68
		V4.59C6.3,4.21,5.99,3.9,5.61,3.9z M4.35,5.73L3.57,6.26L2.82,6.77c-0.05,0.03-0.11,0-0.11-0.06V5.67V4.63
		c0-0.06,0.06-0.09,0.11-0.06l0.75,0.51l0.78,0.53C4.39,5.64,4.39,5.7,4.35,5.73z"/>
	<circle class="st3" cx="1.84" cy="2.75" r="0.96"/>
	<circle class="st3" cx="4.38" cy="2.49" r="1.22"/>
</g>
</svg>
