<?xml version="1.0" standalone="no"?><!DOCTYPE svg PUBLIC "-//W3C//DTD SVG 1.1//EN" "http://www.w3.org/Graphics/SVG/1.1/DTD/svg11.dtd"><svg t="1668098071035" class="icon" viewBox="0 0 1087 1024" version="1.1" xmlns="http://www.w3.org/2000/svg" p-id="3643" xmlns:xlink="http://www.w3.org/1999/xlink" width="212.3046875" height="200"><path d="M768 415.744q0 5.12-10.752 17.92t-23.04 30.208-23.04 37.888-10.752 41.984 10.752 41.472 23.04 36.352 23.04 27.136 10.752 13.824l0 107.52q0 17.408-12.8 39.424t-31.744 41.472-41.984 32.256-43.52 12.8l-508.928 0q-27.648 0-50.688-9.728t-40.448-27.136-27.136-40.96-9.728-51.2l0-441.344q0-20.48 9.216-42.496t26.112-40.448 39.936-30.72 50.688-12.288l508.928 0q27.648 0 51.712 9.728t41.984 26.624 28.16 40.448 10.24 50.176l0 89.088zM1086.464 319.488l0 467.968q0 22.528-11.776 39.936t-35.328 17.408q-8.192 0-20.992-6.144t-25.6-14.336-24.064-16.384-16.384-13.312q-13.312-11.264-40.448-38.912t-54.784-62.464-48.64-71.68-20.992-67.584 22.528-70.144 54.272-77.312 66.56-70.144 58.368-48.64q9.216-6.144 25.088-14.848t28.16-8.704q27.648 0 35.84 15.36t8.192 37.888l0 2.048z" p-id="3644"></path></svg>